<?xml version="1.0" standalone="no"?>
<!DOCTYPE svg PUBLIC "-//W3C//DTD SVG 20010904//EN"
 "http://www.w3.org/TR/2001/REC-SVG-20010904/DTD/svg10.dtd">
<svg version="1.0" xmlns="http://www.w3.org/2000/svg"
 width="833.000000pt" height="833.000000pt" viewBox="0 0 833.000000 833.000000"
 preserveAspectRatio="xMidYMid meet">
<metadata>
Created by potrace 1.14, written by Peter Selinger 2001-2017
</metadata>
<g transform="translate(0.000000,833.000000) scale(0.100000,-0.100000)"
fill="#000000" stroke="none">
<path d="M3245 8078 c-360 -87 -674 -193 -944 -319 l-94 -43 6 -176 c8 -201
21 -375 43 -578 9 -78 14 -148 11 -156 -3 -7 -68 -51 -144 -97 -173 -105 -450
-312 -585 -437 l-46 -43 -84 54 c-206 133 -621 367 -651 367 -26 0 -304 -321
-461 -534 -75 -100 -219 -313 -275 -408 l-22 -37 149 -223 c82 -123 197 -287
256 -365 l106 -142 0 -1101 c0 -903 2 -1100 13 -1100 32 0 1361 -131 1381
-136 27 -7 58 -32 80 -66 14 -22 21 -82 38 -335 12 -169 24 -311 28 -316 7 -8
1108 -89 1155 -85 l30 3 41 282 c45 306 53 332 114 364 33 18 72 19 773 19
661 0 743 -2 773 -16 63 -30 72 -53 108 -296 19 -123 37 -248 41 -279 4 -31
11 -62 15 -69 7 -11 101 -7 547 24 296 20 561 40 589 43 l50 5 18 272 c10 149
22 296 27 325 10 59 41 101 88 120 19 8 1335 141 1392 141 5 0 9 474 9 1100
l0 1101 121 162 c67 89 182 253 257 365 l134 204 -63 103 c-135 221 -359 515
-572 754 -59 67 -114 121 -122 121 -30 0 -378 -194 -603 -337 l-132 -85 -68
62 c-37 34 -138 117 -225 184 -141 108 -209 154 -428 289 l-62 39 7 51 c29
239 56 613 56 768 l0 96 -99 46 c-136 64 -319 136 -491 192 -147 48 -475 135
-508 135 -13 0 -37 -32 -77 -102 -69 -120 -255 -485 -310 -609 l-39 -85 -50 7
c-27 5 -125 13 -216 20 -164 11 -411 2 -549 -20 -31 -5 -51 -4 -51 1 0 19
-238 496 -319 641 -90 160 -84 155 -166 135z m-834 -3232 c297 -63 537 -288
621 -583 32 -112 32 -305 0 -417 -67 -233 -241 -436 -458 -532 -109 -48 -215
-67 -354 -62 -108 4 -138 9 -220 37 -264 90 -459 298 -531 567 -30 111 -30
288 0 398 80 298 317 524 621 592 76 17 242 17 321 0z m3874 -10 c275 -76 488
-285 571 -561 23 -78 27 -108 27 -220 0 -112 -4 -142 -27 -218 -46 -154 -117
-269 -228 -372 -157 -146 -334 -215 -548 -215 -321 0 -600 179 -734 472 -53
115 -70 196 -70 333 0 127 13 194 58 307 99 244 328 432 597 488 66 14 284 5
354 -14z m-2010 -475 c57 -25 100 -65 124 -114 20 -42 21 -58 21 -465 0 -456
0 -455 -55 -520 -73 -86 -217 -113 -320 -60 -61 32 -87 59 -114 118 -20 43
-21 64 -21 461 l0 417 28 53 c62 119 209 166 337 110z"/>
<path d="M2270 4543 c-125 -16 -250 -80 -339 -173 -83 -87 -139 -231 -139
-358 0 -217 109 -393 304 -489 77 -39 138 -53 227 -54 161 0 273 46 387 161
137 137 186 316 141 512 -10 43 -39 116 -51 128 -3 3 -17 23 -31 45 -103 156
-312 251 -499 228z"/>
<path d="M5919 4539 c-106 -15 -204 -65 -296 -152 -98 -93 -152 -217 -157
-360 -5 -157 45 -287 154 -397 285 -289 768 -175 893 211 71 217 -4 455 -188
596 -112 85 -257 122 -406 102z"/>
<path d="M517 2453 c-2 -5 -3 -100 -2 -213 2 -185 6 -240 20 -320 3 -14 7 -39
10 -56 17 -106 96 -302 168 -419 230 -375 651 -669 1252 -878 111 -38 313 -99
372 -112 10 -2 88 -20 173 -39 85 -19 169 -37 185 -40 17 -2 68 -11 115 -19
47 -8 107 -18 133 -22 27 -3 58 -8 70 -11 11 -2 43 -6 71 -9 51 -5 113 -13
171 -20 17 -2 66 -7 110 -10 44 -3 96 -8 115 -10 34 -4 138 -10 345 -20 128
-7 537 -7 680 -1 145 6 299 15 355 21 25 2 79 7 120 10 41 4 86 8 100 10 14 2
50 7 80 10 30 4 87 11 125 16 39 5 88 12 110 14 22 3 51 7 65 10 35 7 58 12
110 20 25 4 54 9 65 11 11 3 56 11 100 20 254 49 697 180 830 247 22 11 40 19
40 18 0 -9 204 87 300 142 223 126 354 224 506 379 112 114 199 237 265 373
78 163 118 302 132 460 10 122 8 440 -3 438 -6 -1 -47 -4 -90 -8 -44 -3 -87
-8 -95 -10 -8 -2 -55 -7 -105 -10 -49 -4 -101 -8 -115 -11 -14 -2 -55 -6 -90
-9 -70 -6 -138 -12 -210 -20 -116 -12 -149 -15 -210 -20 -36 -3 -85 -7 -110
-10 -25 -3 -72 -7 -105 -10 -33 -4 -63 -9 -67 -13 -3 -4 -9 -56 -13 -117 -4
-60 -8 -128 -10 -150 -2 -22 -7 -83 -10 -135 -3 -52 -8 -124 -11 -159 -7 -100
-50 -153 -136 -166 -34 -5 -125 -12 -263 -20 -44 -3 -109 -8 -145 -10 -92 -8
-171 -13 -275 -20 -49 -3 -108 -8 -130 -10 -22 -2 -83 -7 -135 -10 -52 -3
-124 -8 -160 -10 -177 -13 -211 -15 -283 -21 -66 -5 -84 -2 -120 15 -57 28
-76 64 -93 179 -22 149 -24 163 -34 227 -5 33 -11 76 -14 95 -2 19 -8 60 -12
90 -5 30 -7 58 -6 63 3 10 37 9 -601 11 -370 1 -571 -2 -575 -9 -4 -5 -7 -17
-9 -25 -1 -8 -14 -96 -28 -195 -14 -99 -28 -193 -30 -210 -3 -16 -7 -50 -11
-75 -9 -77 -37 -126 -85 -151 -38 -19 -52 -21 -128 -15 -47 4 -117 9 -156 11
-38 3 -101 8 -140 11 -38 3 -99 7 -135 10 -36 2 -92 6 -125 9 -33 2 -103 7
-155 10 -52 3 -113 7 -135 10 -22 2 -80 7 -130 10 -49 4 -112 8 -140 10 -27 2
-102 7 -165 11 -118 6 -158 17 -197 51 -38 34 -42 52 -58 288 -1 22 -6 85 -10
140 -8 117 -13 188 -14 231 l-1 31 -127 12 c-71 7 -144 14 -163 16 -19 2 -64
7 -100 10 -36 3 -81 8 -100 10 -19 2 -63 7 -97 10 -85 7 -183 16 -213 20 -14
1 -59 6 -100 9 -41 4 -91 9 -110 11 -19 2 -69 7 -110 11 -41 3 -78 8 -82 10
-4 2 -9 1 -11 -3z"/>
</g>
</svg>
